<svg xmlns="http://www.w3.org/2000/svg" width="3635" height="2425" fill="none"><path fill="url(#a)" fill-rule="evenodd" d="M80.706 3.229h3.228V0h-3.228v3.229Zm80.706 0h3.228V0h-3.228v3.229Zm80.706 0h3.228V0h-3.228v3.229Zm80.706 0h3.228V0h-3.228v3.229ZM80.706 83.955h3.228v-3.23h-3.228v3.23Zm80.706 0h3.228v-3.23h-3.228v3.23Zm80.706 0h3.228v-3.23h-3.228v3.23Zm80.706 0h3.228v-3.23h-3.228v3.23ZM80.706 164.68h3.228v-3.229h-3.228v3.229Zm80.706 0h3.228v-3.229h-3.228v3.229Zm80.706 0h3.228v-3.229h-3.228v3.229Zm80.706 0h3.228v-3.229h-3.228v3.229ZM80.706 245.406h3.228v-3.229h-3.228v3.229Zm80.706 0h3.228v-3.229h-3.228v3.229Zm80.706 0h3.228v-3.229h-3.228v3.229Zm80.706 0h3.228v-3.229h-3.228v3.229ZM80.706 326.132h3.228v-3.229h-3.228v3.229Zm80.706 0h3.228v-3.229h-3.228v3.229Zm80.706 0h3.228v-3.229h-3.228v3.229Zm80.706 0h3.228v-3.229h-3.228v3.229ZM80.706 406.858h3.228v-3.23h-3.228v3.23Zm80.706 0h3.228v-3.23h-3.228v3.23Zm80.706 0h3.228v-3.23h-3.228v3.23Zm80.706 0h3.228v-3.23h-3.228v3.23ZM403.53 83.955h3.228v-3.23h-3.228v3.23Zm0 80.725h3.228v-3.229h-3.228v3.229Zm0 80.726h3.228v-3.229h-3.228v3.229Zm0 80.726h3.228v-3.229h-3.228v3.229ZM0 83.955h3.228v-3.23H0v3.23Zm0 80.725h3.228v-3.229H0v3.229Zm0 80.726h3.228v-3.229H0v3.229Zm0 80.726h3.228v-3.229H0v3.229ZM484.236 3.229h3.229V0h-3.229v3.229Zm80.706 0h3.229V0h-3.229v3.229Zm80.706 0h3.229V0h-3.229v3.229Zm80.706 0h3.229V0h-3.229v3.229ZM484.236 83.955h3.229v-3.23h-3.229v3.23Zm80.706 0h3.229v-3.23h-3.229v3.23Zm80.706 0h3.229v-3.23h-3.229v3.23Zm80.706 0h3.229v-3.23h-3.229v3.23ZM484.236 164.68h3.229v-3.229h-3.229v3.229Zm80.706 0h3.229v-3.229h-3.229v3.229Zm80.706 0h3.229v-3.229h-3.229v3.229Zm80.706 0h3.229v-3.229h-3.229v3.229Zm-242.118 80.726h3.229v-3.229h-3.229v3.229Zm80.706 0h3.229v-3.229h-3.229v3.229Zm80.706 0h3.229v-3.229h-3.229v3.229Zm80.706 0h3.229v-3.229h-3.229v3.229Zm-242.118 80.726h3.229v-3.229h-3.229v3.229Zm80.706 0h3.229v-3.229h-3.229v3.229Zm80.706 0h3.229v-3.229h-3.229v3.229Zm80.706 0h3.229v-3.229h-3.229v3.229Zm-242.118 80.726h3.229v-3.23h-3.229v3.23Zm80.706 0h3.229v-3.23h-3.229v3.23Zm80.706 0h3.229v-3.23h-3.229v3.23Zm80.706 0h3.229v-3.23h-3.229v3.23ZM807.06 83.955h3.229v-3.23h-3.229v3.23Zm0 80.725h3.229v-3.229h-3.229v3.229Zm0 80.726h3.229v-3.229h-3.229v3.229Zm0 80.726h3.229v-3.229h-3.229v3.229ZM80.706 487.583h3.228v-3.229h-3.228v3.229Zm80.706 0h3.228v-3.229h-3.228v3.229Zm80.706 0h3.228v-3.229h-3.228v3.229Zm80.706 0h3.228v-3.229h-3.228v3.229ZM80.706 568.309h3.228v-3.229h-3.228v3.229Zm80.706 0h3.228v-3.229h-3.228v3.229Zm80.706 0h3.228v-3.229h-3.228v3.229Zm80.706 0h3.228v-3.229h-3.228v3.229ZM80.706 649.035h3.228v-3.229h-3.228v3.229Zm80.706 0h3.228v-3.229h-3.228v3.229Zm80.706 0h3.228v-3.229h-3.228v3.229Zm80.706 0h3.228v-3.229h-3.228v3.229ZM80.706 729.76h3.228v-3.229h-3.228v3.229Zm80.706 0h3.228v-3.229h-3.228v3.229Zm80.706 0h3.228v-3.229h-3.228v3.229Zm80.706 0h3.228v-3.229h-3.228v3.229ZM80.706 810.486h3.228v-3.229h-3.228v3.229Zm80.706 0h3.228v-3.229h-3.228v3.229Zm80.706 0h3.228v-3.229h-3.228v3.229Zm80.706 0h3.228v-3.229h-3.228v3.229Zm80.706-322.903h3.228v-3.229h-3.228v3.229Zm0 80.726h3.228v-3.229h-3.228v3.229Zm0 80.726h3.228v-3.229h-3.228v3.229Zm0 80.725h3.228v-3.229h-3.228v3.229ZM0 487.583h3.228v-3.229H0v3.229Zm0 80.726h3.228v-3.229H0v3.229Zm0 80.726h3.228v-3.229H0v3.229Zm0 80.725h3.228v-3.229H0v3.229Zm484.236-242.177h3.229v-3.229h-3.229v3.229Zm80.706 0h3.229v-3.229h-3.229v3.229Zm80.706 0h3.229v-3.229h-3.229v3.229Zm80.706 0h3.229v-3.229h-3.229v3.229Zm-242.118 80.726h3.229v-3.229h-3.229v3.229Zm80.706 0h3.229v-3.229h-3.229v3.229Zm80.706 0h3.229v-3.229h-3.229v3.229Zm80.706 0h3.229v-3.229h-3.229v3.229Zm-242.118 80.726h3.229v-3.229h-3.229v3.229Zm80.706 0h3.229v-3.229h-3.229v3.229Zm80.706 0h3.229v-3.229h-3.229v3.229Zm80.706 0h3.229v-3.229h-3.229v3.229ZM484.236 729.76h3.229v-3.229h-3.229v3.229Zm80.706 0h3.229v-3.229h-3.229v3.229Zm80.706 0h3.229v-3.229h-3.229v3.229Zm80.706 0h3.229v-3.229h-3.229v3.229Zm-242.118 80.726h3.229v-3.229h-3.229v3.229Zm80.706 0h3.229v-3.229h-3.229v3.229Zm80.706 0h3.229v-3.229h-3.229v3.229Zm80.706 0h3.229v-3.229h-3.229v3.229Zm80.706-322.903h3.229v-3.229h-3.229v3.229Zm0 80.726h3.229v-3.229h-3.229v3.229Zm0 80.726h3.229v-3.229h-3.229v3.229Zm0 80.725h3.229v-3.229h-3.229v3.229ZM887.766 3.229h3.229V0h-3.229v3.229Zm80.706 0h3.229V0h-3.229v3.229Zm80.708 0h3.23V0h-3.23v3.229Zm80.7 0h3.23V0h-3.23v3.229ZM887.766 83.955h3.229v-3.23h-3.229v3.23Zm80.706 0h3.229v-3.23h-3.229v3.23Zm80.708 0h3.23v-3.23h-3.23v3.23Zm80.7 0h3.23v-3.23h-3.23v3.23ZM887.766 164.68h3.229v-3.229h-3.229v3.229Zm80.706 0h3.229v-3.229h-3.229v3.229Zm80.708 0h3.23v-3.229h-3.23v3.229Zm80.7 0h3.23v-3.229h-3.23v3.229Zm-242.114 80.726h3.229v-3.229h-3.229v3.229Zm80.706 0h3.229v-3.229h-3.229v3.229Zm80.708 0h3.23v-3.229h-3.23v3.229Zm80.7 0h3.23v-3.229h-3.23v3.229Zm-242.114 80.726h3.229v-3.229h-3.229v3.229Zm80.706 0h3.229v-3.229h-3.229v3.229Zm80.708 0h3.23v-3.229h-3.23v3.229Zm80.7 0h3.23v-3.229h-3.23v3.229Zm-242.114 80.726h3.229v-3.23h-3.229v3.23Zm80.706 0h3.229v-3.23h-3.229v3.23Zm80.708 0h3.23v-3.23h-3.23v3.23Zm80.7 0h3.23v-3.23h-3.23v3.23Zm80.71-322.903h3.23v-3.23h-3.23v3.23Zm0 80.725h3.23v-3.229h-3.23v3.229Zm0 80.726h3.23v-3.229h-3.23v3.229Zm0 80.726h3.23v-3.229h-3.23v3.229ZM1291.3 3.229h3.22V0h-3.22v3.229Zm80.7 0h3.23V0H1372v3.229Zm80.71 0h3.23V0h-3.23v3.229Zm80.7 0h3.23V0h-3.23v3.229ZM1291.3 83.955h3.22v-3.23h-3.22v3.23Zm80.7 0h3.23v-3.23H1372v3.23Zm80.71 0h3.23v-3.23h-3.23v3.23Zm80.7 0h3.23v-3.23h-3.23v3.23ZM1291.3 164.68h3.22v-3.229h-3.22v3.229Zm80.7 0h3.23v-3.229H1372v3.229Zm80.71 0h3.23v-3.229h-3.23v3.229Zm80.7 0h3.23v-3.229h-3.23v3.229Zm-242.11 80.726h3.22v-3.229h-3.22v3.229Zm80.7 0h3.23v-3.229H1372v3.229Zm80.71 0h3.23v-3.229h-3.23v3.229Zm80.7 0h3.23v-3.229h-3.23v3.229Zm-242.11 80.726h3.22v-3.229h-3.22v3.229Zm80.7 0h3.23v-3.229H1372v3.229Zm80.71 0h3.23v-3.229h-3.23v3.229Zm80.7 0h3.23v-3.229h-3.23v3.229Zm-242.11 80.726h3.22v-3.23h-3.22v3.23Zm80.7 0h3.23v-3.23H1372v3.23Zm80.71 0h3.23v-3.23h-3.23v3.23Zm80.7 0h3.23v-3.23h-3.23v3.23Zm80.71-322.903h3.23v-3.23h-3.23v3.23Zm0 80.725h3.23v-3.229h-3.23v3.229Zm0 80.726h3.23v-3.229h-3.23v3.229Zm0 80.726h3.23v-3.229h-3.23v3.229ZM887.766 487.583h3.229v-3.229h-3.229v3.229Zm80.706 0h3.229v-3.229h-3.229v3.229Zm80.708 0h3.23v-3.229h-3.23v3.229Zm80.7 0h3.23v-3.229h-3.23v3.229Zm-242.114 80.726h3.229v-3.229h-3.229v3.229Zm80.706 0h3.229v-3.229h-3.229v3.229Zm80.708 0h3.23v-3.229h-3.23v3.229Zm80.7 0h3.23v-3.229h-3.23v3.229Zm-242.114 80.726h3.229v-3.229h-3.229v3.229Zm80.706 0h3.229v-3.229h-3.229v3.229Zm80.708 0h3.23v-3.229h-3.23v3.229Zm80.7 0h3.23v-3.229h-3.23v3.229ZM887.766 729.76h3.229v-3.229h-3.229v3.229Zm80.706 0h3.229v-3.229h-3.229v3.229Zm80.708 0h3.23v-3.229h-3.23v3.229Zm80.7 0h3.23v-3.229h-3.23v3.229Zm-242.114 80.726h3.229v-3.229h-3.229v3.229Zm80.706 0h3.229v-3.229h-3.229v3.229Zm80.708 0h3.23v-3.229h-3.23v3.229Zm80.7 0h3.23v-3.229h-3.23v3.229Zm80.71-322.903h3.23v-3.229h-3.23v3.229Zm0 80.726h3.23v-3.229h-3.23v3.229Zm0 80.726h3.23v-3.229h-3.23v3.229Zm0 80.725h3.23v-3.229h-3.23v3.229Zm80.71-242.177h3.22v-3.229h-3.22v3.229Zm80.7 0h3.23v-3.229H1372v3.229Zm80.71 0h3.23v-3.229h-3.23v3.229Zm80.7 0h3.23v-3.229h-3.23v3.229Zm-242.11 80.726h3.22v-3.229h-3.22v3.229Zm80.7 0h3.23v-3.229H1372v3.229Zm80.71 0h3.23v-3.229h-3.23v3.229Zm80.7 0h3.23v-3.229h-3.23v3.229Zm-242.11 80.726h3.22v-3.229h-3.22v3.229Zm80.7 0h3.23v-3.229H1372v3.229Zm80.71 0h3.23v-3.229h-3.23v3.229Zm80.7 0h3.23v-3.229h-3.23v3.229ZM1291.3 729.76h3.22v-3.229h-3.22v3.229Zm80.7 0h3.23v-3.229H1372v3.229Zm80.71 0h3.23v-3.229h-3.23v3.229Zm80.7 0h3.23v-3.229h-3.23v3.229Zm-242.11 80.726h3.22v-3.229h-3.22v3.229Zm80.7 0h3.23v-3.229H1372v3.229Zm80.71 0h3.23v-3.229h-3.23v3.229Zm80.7 0h3.23v-3.229h-3.23v3.229Zm80.71-322.903h3.23v-3.229h-3.23v3.229Zm0 80.726h3.23v-3.229h-3.23v3.229Zm0 80.726h3.23v-3.229h-3.23v3.229Zm0 80.725h3.23v-3.229h-3.23v3.229ZM80.706 891.212h3.228v-3.229h-3.228v3.229Zm80.706 0h3.228v-3.229h-3.228v3.229Zm80.706 0h3.228v-3.229h-3.228v3.229Zm80.706 0h3.228v-3.229h-3.228v3.229ZM80.706 971.937h3.228v-3.229h-3.228v3.229Zm80.706 0h3.228v-3.229h-3.228v3.229Zm80.706 0h3.228v-3.229h-3.228v3.229Zm80.706 0h3.228v-3.229h-3.228v3.229ZM80.706 1052.66h3.228v-3.23h-3.228v3.23Zm80.706 0h3.228v-3.23h-3.228v3.23Zm80.706 0h3.228v-3.23h-3.228v3.23Zm80.706 0h3.228v-3.23h-3.228v3.23Zm-242.118 80.73h3.228v-3.23h-3.228v3.23Zm80.706 0h3.228v-3.23h-3.228v3.23Zm80.706 0h3.228v-3.23h-3.228v3.23Zm80.706 0h3.228v-3.23h-3.228v3.23Zm-242.118 80.72h3.228v-3.22h-3.228v3.22Zm80.706 0h3.228v-3.22h-3.228v3.22Zm80.706 0h3.228v-3.22h-3.228v3.22Zm80.706 0h3.228v-3.22h-3.228v3.22Zm80.706-322.898h3.228v-3.229h-3.228v3.229Zm0 80.725h3.228v-3.229h-3.228v3.229Zm0 80.723h3.228v-3.23h-3.228v3.23Zm0 80.73h3.228v-3.23h-3.228v3.23ZM0 891.212h3.228v-3.229H0v3.229Zm0 80.725h3.228v-3.229H0v3.229Zm0 80.723h3.228v-3.23H0v3.23Zm0 80.73h3.228v-3.23H0v3.23Zm484.236-242.178h3.229v-3.229h-3.229v3.229Zm80.706 0h3.229v-3.229h-3.229v3.229Zm80.706 0h3.229v-3.229h-3.229v3.229Zm80.706 0h3.229v-3.229h-3.229v3.229Zm-242.118 80.725h3.229v-3.229h-3.229v3.229Zm80.706 0h3.229v-3.229h-3.229v3.229Zm80.706 0h3.229v-3.229h-3.229v3.229Zm80.706 0h3.229v-3.229h-3.229v3.229Zm-242.118 80.723h3.229v-3.23h-3.229v3.23Zm80.706 0h3.229v-3.23h-3.229v3.23Zm80.706 0h3.229v-3.23h-3.229v3.23Zm80.706 0h3.229v-3.23h-3.229v3.23Zm-242.118 80.73h3.229v-3.23h-3.229v3.23Zm80.706 0h3.229v-3.23h-3.229v3.23Zm80.706 0h3.229v-3.23h-3.229v3.23Zm80.706 0h3.229v-3.23h-3.229v3.23Zm-242.118 80.72h3.229v-3.22h-3.229v3.22Zm80.706 0h3.229v-3.22h-3.229v3.22Zm80.706 0h3.229v-3.22h-3.229v3.22Zm80.706 0h3.229v-3.22h-3.229v3.22Zm80.706-322.898h3.229v-3.229h-3.229v3.229Zm0 80.725h3.229v-3.229h-3.229v3.229Zm0 80.723h3.229v-3.23h-3.229v3.23ZM80.706 1294.84h3.228v-3.23h-3.228v3.23Zm80.706 0h3.228v-3.23h-3.228v3.23Zm80.706 0h3.228v-3.23h-3.228v3.23Zm80.706 0h3.228v-3.23h-3.228v3.23Zm-242.118 80.73h3.228v-3.23h-3.228v3.23Zm80.706 0h3.228v-3.23h-3.228v3.23Zm80.706 0h3.228v-3.23h-3.228v3.23Zm80.706 0h3.228v-3.23h-3.228v3.23Zm-242.118 80.72h3.228v-3.23h-3.228v3.23Zm80.706 0h3.228v-3.23h-3.228v3.23Zm80.706 0h3.228v-3.23h-3.228v3.23Zm80.706 0h3.228v-3.23h-3.228v3.23Zm-242.118 80.73h3.228v-3.23h-3.228v3.23Zm80.706 0h3.228v-3.23h-3.228v3.23Zm80.706 0h3.228v-3.23h-3.228v3.23Zm80.706 0h3.228v-3.23h-3.228v3.23Zm-242.118 80.72h3.228v-3.23h-3.228v3.23Zm80.706 0h3.228v-3.23h-3.228v3.23Zm80.706 0h3.228v-3.23h-3.228v3.23Zm80.706 0h3.228v-3.23h-3.228v3.23Zm80.706-322.9h3.228v-3.23h-3.228v3.23Zm0 80.73h3.228v-3.23h-3.228v3.23Zm0 80.72h3.228v-3.23h-3.228v3.23Zm0 80.73h3.228v-3.23h-3.228v3.23ZM0 1294.84h3.228v-3.23H0v3.23Zm0 80.73h3.228v-3.23H0v3.23Zm0 80.72h3.228v-3.23H0v3.23Zm0 80.73h3.228v-3.23H0v3.23Zm484.236-242.18h3.229v-3.23h-3.229v3.23Zm80.706 0h3.229v-3.23h-3.229v3.23Zm80.706 0h3.229v-3.23h-3.229v3.23Zm80.706 0h3.229v-3.23h-3.229v3.23Zm-242.118 80.73h3.229v-3.23h-3.229v3.23Zm80.706 0h3.229v-3.23h-3.229v3.23Zm80.706 0h3.229v-3.23h-3.229v3.23Zm80.706 0h3.229v-3.23h-3.229v3.23Zm-242.118 80.72h3.229v-3.23h-3.229v3.23Zm80.706 0h3.229v-3.23h-3.229v3.23Zm80.706 0h3.229v-3.23h-3.229v3.23Zm80.706 0h3.229v-3.23h-3.229v3.23Zm-242.118 80.73h3.229v-3.23h-3.229v3.23Zm80.706 0h3.229v-3.23h-3.229v3.23Zm80.706 0h3.229v-3.23h-3.229v3.23Zm80.706 0h3.229v-3.23h-3.229v3.23Zm-242.118 80.72h3.229v-3.23h-3.229v3.23Zm80.706 0h3.229v-3.23h-3.229v3.23Zm80.706 0h3.229v-3.23h-3.229v3.23Zm80.706 0h3.229v-3.23h-3.229v3.23Zm80.706-322.9h3.229v-3.23h-3.229v3.23Zm0 80.73h3.229v-3.23h-3.229v3.23Zm0 80.72h3.229v-3.23h-3.229v3.23Zm80.706-565.078h3.229v-3.229h-3.229v3.229Zm80.706 0h3.229v-3.229h-3.229v3.229Zm80.708 0h3.23v-3.229h-3.23v3.229Zm80.7 0h3.23v-3.229h-3.23v3.229Zm-242.114 80.725h3.229v-3.229h-3.229v3.229Zm80.706 0h3.229v-3.229h-3.229v3.229Zm80.708 0h3.23v-3.229h-3.23v3.229Zm80.7 0h3.23v-3.229h-3.23v3.229Zm-242.114 80.723h3.229v-3.23h-3.229v3.23Zm80.706 0h3.229v-3.23h-3.229v3.23Zm80.708 0h3.23v-3.23h-3.23v3.23Zm80.7 0h3.23v-3.23h-3.23v3.23Zm-242.114 80.73h3.229v-3.23h-3.229v3.23Zm80.706 0h3.229v-3.23h-3.229v3.23Zm80.708 0h3.23v-3.23h-3.23v3.23Zm80.7 0h3.23v-3.23h-3.23v3.23Zm-242.114 80.72h3.229v-3.22h-3.229v3.22Zm80.706 0h3.229v-3.22h-3.229v3.22Zm80.708 0h3.23v-3.22h-3.23v3.22Zm80.7 0h3.23v-3.22h-3.23v3.22Zm80.71-322.898h3.23v-3.229h-3.23v3.229Zm0 80.725h3.23v-3.229h-3.23v3.229Zm0 80.723h3.23v-3.23h-3.23v3.23Zm0 80.73h3.23v-3.23h-3.23v3.23Zm80.71-242.178h3.22v-3.229h-3.22v3.229Zm80.7 0h3.23v-3.229H1372v3.229Zm80.71 0h3.23v-3.229h-3.23v3.229Zm80.7 0h3.23v-3.229h-3.23v3.229Zm-242.11 80.725h3.22v-3.229h-3.22v3.229Zm80.7 0h3.23v-3.229H1372v3.229Zm80.71 0h3.23v-3.229h-3.23v3.229Zm80.7 0h3.23v-3.229h-3.23v3.229Zm-242.11 80.723h3.22v-3.23h-3.22v3.23Zm80.7 0h3.23v-3.23H1372v3.23Zm80.71 0h3.23v-3.23h-3.23v3.23Zm80.7 0h3.23v-3.23h-3.23v3.23Zm-242.11 80.73h3.22v-3.23h-3.22v3.23Zm80.7 0h3.23v-3.23H1372v3.23Zm80.71 0h3.23v-3.23h-3.23v3.23Zm80.7 0h3.23v-3.23h-3.23v3.23Zm-242.11 80.72h3.22v-3.22h-3.22v3.22Zm80.7 0h3.23v-3.22H1372v3.22Zm80.71 0h3.23v-3.22h-3.23v3.22Zm80.7 0h3.23v-3.22h-3.23v3.22Zm80.71-322.898h3.23v-3.229h-3.23v3.229Zm0 80.725h3.23v-3.229h-3.23v3.229Zm0 80.723h3.23v-3.23h-3.23v3.23Zm0 80.73h3.23v-3.23h-3.23v3.23Zm-726.354 161.45h3.229v-3.23h-3.229v3.23Zm80.706 0h3.229v-3.23h-3.229v3.23Zm80.708 0h3.23v-3.23h-3.23v3.23Zm80.7 0h3.23v-3.23h-3.23v3.23Zm-242.114 80.73h3.229v-3.23h-3.229v3.23Zm80.706 0h3.229v-3.23h-3.229v3.23Zm80.708 0h3.23v-3.23h-3.23v3.23Zm80.7 0h3.23v-3.23h-3.23v3.23Zm-242.114 80.72h3.229v-3.23h-3.229v3.23Zm80.706 0h3.229v-3.23h-3.229v3.23Zm80.708 0h3.23v-3.23h-3.23v3.23Zm80.7 0h3.23v-3.23h-3.23v3.23Zm-242.114 80.73h3.229v-3.23h-3.229v3.23Zm80.706 0h3.229v-3.23h-3.229v3.23Zm80.708 0h3.23v-3.23h-3.23v3.23Zm80.7 0h3.23v-3.23h-3.23v3.23Zm-242.114 80.72h3.229v-3.23h-3.229v3.23Zm80.706 0h3.229v-3.23h-3.229v3.23Zm80.708 0h3.23v-3.23h-3.23v3.23Zm80.7 0h3.23v-3.23h-3.23v3.23Zm80.71-322.9h3.23v-3.23h-3.23v3.23Zm0 80.73h3.23v-3.23h-3.23v3.23Zm0 80.72h3.23v-3.23h-3.23v3.23Zm0 80.73h3.23v-3.23h-3.23v3.23Zm80.71-242.18h3.22v-3.23h-3.22v3.23Zm80.7 0h3.23v-3.23H1372v3.23Zm80.71 0h3.23v-3.23h-3.23v3.23Zm80.7 0h3.23v-3.23h-3.23v3.23Zm-242.11 80.73h3.22v-3.23h-3.22v3.23Zm80.7 0h3.23v-3.23H1372v3.23Zm80.71 0h3.23v-3.23h-3.23v3.23Zm80.7 0h3.23v-3.23h-3.23v3.23Zm-242.11 80.72h3.22v-3.23h-3.22v3.23Zm80.7 0h3.23v-3.23H1372v3.23Zm80.71 0h3.23v-3.23h-3.23v3.23Zm80.7 0h3.23v-3.23h-3.23v3.23Zm-242.11 80.73h3.22v-3.23h-3.22v3.23Zm80.7 0h3.23v-3.23H1372v3.23Zm80.71 0h3.23v-3.23h-3.23v3.23Zm80.7 0h3.23v-3.23h-3.23v3.23Zm-242.11 80.72h3.22v-3.23h-3.22v3.23Zm80.7 0h3.23v-3.23H1372v3.23Zm80.71 0h3.23v-3.23h-3.23v3.23Zm80.7 0h3.23v-3.23h-3.23v3.23Zm80.71-322.9h3.23v-3.23h-3.23v3.23Zm0 80.73h3.23v-3.23h-3.23v3.23Zm0 80.72h3.23v-3.23h-3.23v3.23Zm0 80.73h3.23v-3.23h-3.23v3.23ZM80.706 1698.47h3.228v-3.23h-3.228v3.23Zm80.706 0h3.228v-3.23h-3.228v3.23Zm80.706 0h3.228v-3.23h-3.228v3.23Zm80.706 0h3.228v-3.23h-3.228v3.23Zm-242.118 80.72h3.228v-3.22h-3.228v3.22Zm80.706 0h3.228v-3.22h-3.228v3.22Zm80.706 0h3.228v-3.22h-3.228v3.22Zm80.706 0h3.228v-3.22h-3.228v3.22Zm-242.118 80.73h3.228v-3.23h-3.228v3.23Zm80.706 0h3.228v-3.23h-3.228v3.23Zm80.706 0h3.228v-3.23h-3.228v3.23Zm80.706 0h3.228v-3.23h-3.228v3.23Zm-242.118 80.73h3.228v-3.23h-3.228v3.23Zm80.706 0h3.228v-3.23h-3.228v3.23Zm80.706 0h3.228v-3.23h-3.228v3.23Zm80.706 0h3.228v-3.23h-3.228v3.23Zm-242.118 80.72h3.228v-3.23h-3.228v3.23Zm80.706 0h3.228v-3.23h-3.228v3.23Zm80.706 0h3.228v-3.23h-3.228v3.23Zm80.706 0h3.228v-3.23h-3.228v3.23Zm80.706-322.9h3.228v-3.23h-3.228v3.23Zm0 80.72h3.228v-3.22h-3.228v3.22Zm0 80.73h3.228v-3.23h-3.228v3.23Zm0 80.73h3.228v-3.23h-3.228v3.23ZM0 1698.47h3.228v-3.23H0v3.23Zm0 80.72h3.228v-3.22H0v3.22Zm0 80.73h3.228v-3.23H0v3.23Zm0 80.73h3.228v-3.23H0v3.23Zm484.236-242.18h3.229v-3.23h-3.229v3.23Zm80.706 0h3.229v-3.23h-3.229v3.23Zm80.706 0h3.229v-3.23h-3.229v3.23Zm80.706 0h3.229v-3.23h-3.229v3.23Zm-242.118 80.72h3.229v-3.22h-3.229v3.22Zm80.706 0h3.229v-3.22h-3.229v3.22Zm80.706 0h3.229v-3.22h-3.229v3.22Zm80.706 0h3.229v-3.22h-3.229v3.22Zm-242.118 80.73h3.229v-3.23h-3.229v3.23Zm80.706 0h3.229v-3.23h-3.229v3.23Zm80.706 0h3.229v-3.23h-3.229v3.23Zm80.706 0h3.229v-3.23h-3.229v3.23Zm-242.118 80.73h3.229v-3.23h-3.229v3.23Zm80.706 0h3.229v-3.23h-3.229v3.23Zm80.706 0h3.229v-3.23h-3.229v3.23Zm80.706 0h3.229v-3.23h-3.229v3.23Zm-242.118 80.72h3.229v-3.23h-3.229v3.23Zm80.706 0h3.229v-3.23h-3.229v3.23Zm80.706 0h3.229v-3.23h-3.229v3.23Zm80.706 0h3.229v-3.23h-3.229v3.23Zm80.706-322.9h3.229v-3.23h-3.229v3.23Zm0 80.72h3.229v-3.22h-3.229v3.22Zm0 80.73h3.229v-3.23h-3.229v3.23Zm0 80.73h3.229v-3.23h-3.229v3.23ZM80.706 2102.1h3.228v-3.23h-3.228v3.23Zm80.706 0h3.228v-3.23h-3.228v3.23Zm80.706 0h3.228v-3.23h-3.228v3.23Zm80.706 0h3.228v-3.23h-3.228v3.23Zm-242.118 80.72h3.228v-3.23h-3.228v3.23Zm80.706 0h3.228v-3.23h-3.228v3.23Zm80.706 0h3.228v-3.23h-3.228v3.23Zm80.706 0h3.228v-3.23h-3.228v3.23Zm-242.118 80.73h3.228v-3.23h-3.228v3.23Zm80.706 0h3.228v-3.23h-3.228v3.23Zm80.706 0h3.228v-3.23h-3.228v3.23Zm80.706 0h3.228v-3.23h-3.228v3.23Zm80.706-161.45h3.228v-3.23h-3.228v3.23Zm0 80.72h3.228v-3.23h-3.228v3.23Zm0 80.73h3.228v-3.23h-3.228v3.23ZM0 2102.1h3.228v-3.23H0v3.23Zm0 80.72h3.228v-3.23H0v3.23Zm0 80.73h3.228v-3.23H0v3.23Zm484.236-161.45h3.229v-3.23h-3.229v3.23Zm80.706 0h3.229v-3.23h-3.229v3.23Zm80.706 0h3.229v-3.23h-3.229v3.23Zm80.706 0h3.229v-3.23h-3.229v3.23Zm-242.118 80.72h3.229v-3.23h-3.229v3.23Zm80.706 0h3.229v-3.23h-3.229v3.23Zm80.706 0h3.229v-3.23h-3.229v3.23Zm80.706 0h3.229v-3.23h-3.229v3.23Zm-242.118 80.73h3.229v-3.23h-3.229v3.23Zm80.706 0h3.229v-3.23h-3.229v3.23Zm80.706 0h3.229v-3.23h-3.229v3.23Zm80.706 0h3.229v-3.23h-3.229v3.23Zm80.706-161.45h3.229v-3.23h-3.229v3.23Zm0 80.72h3.229v-3.23h-3.229v3.23Zm0 80.73h3.229v-3.23h-3.229v3.23Zm80.706-565.08h3.229v-3.23h-3.229v3.23Zm80.706 0h3.229v-3.23h-3.229v3.23Zm80.708 0h3.23v-3.23h-3.23v3.23Zm80.7 0h3.23v-3.23h-3.23v3.23Zm-242.114 80.72h3.229v-3.22h-3.229v3.22Zm80.706 0h3.229v-3.22h-3.229v3.22Zm80.708 0h3.23v-3.22h-3.23v3.22Zm80.7 0h3.23v-3.22h-3.23v3.22Zm-242.114 80.73h3.229v-3.23h-3.229v3.23Zm80.706 0h3.229v-3.23h-3.229v3.23Zm80.708 0h3.23v-3.23h-3.23v3.23Zm80.7 0h3.23v-3.23h-3.23v3.23Zm-242.114 80.73h3.229v-3.23h-3.229v3.23Zm80.706 0h3.229v-3.23h-3.229v3.23Zm80.708 0h3.23v-3.23h-3.23v3.23Zm80.7 0h3.23v-3.23h-3.23v3.23Zm-242.114 80.72h3.229v-3.23h-3.229v3.23Zm80.706 0h3.229v-3.23h-3.229v3.23Zm80.708 0h3.23v-3.23h-3.23v3.23Zm80.7 0h3.23v-3.23h-3.23v3.23Zm80.71-322.9h3.23v-3.23h-3.23v3.23Zm0 80.72h3.23v-3.22h-3.23v3.22Zm0 80.73h3.23v-3.23h-3.23v3.23Zm0 80.73h3.23v-3.23h-3.23v3.23Zm80.71-242.18h3.22v-3.23h-3.22v3.23Zm80.7 0h3.23v-3.23H1372v3.23Zm80.71 0h3.23v-3.23h-3.23v3.23Zm80.7 0h3.23v-3.23h-3.23v3.23Zm-242.11 80.72h3.22v-3.22h-3.22v3.22Zm80.7 0h3.23v-3.22H1372v3.22Zm80.71 0h3.23v-3.22h-3.23v3.22Zm80.7 0h3.23v-3.22h-3.23v3.22Zm-242.11 80.73h3.22v-3.23h-3.22v3.23Zm80.7 0h3.23v-3.23H1372v3.23Zm80.71 0h3.23v-3.23h-3.23v3.23Zm80.7 0h3.23v-3.23h-3.23v3.23Zm-242.11 80.73h3.22v-3.23h-3.22v3.23Zm80.7 0h3.23v-3.23H1372v3.23Zm80.71 0h3.23v-3.23h-3.23v3.23Zm80.7 0h3.23v-3.23h-3.23v3.23Zm-242.11 80.72h3.22v-3.23h-3.22v3.23Zm80.7 0h3.23v-3.23H1372v3.23Zm80.71 0h3.23v-3.23h-3.23v3.23Zm80.7 0h3.23v-3.23h-3.23v3.23Zm80.71-322.9h3.23v-3.23h-3.23v3.23Zm0 80.72h3.23v-3.22h-3.23v3.22Zm0 80.73h3.23v-3.23h-3.23v3.23Zm0 80.73h3.23v-3.23h-3.23v3.23ZM887.766 2102.1h3.229v-3.23h-3.229v3.23Zm80.706 0h3.229v-3.23h-3.229v3.23Zm80.708 0h3.23v-3.23h-3.23v3.23Zm80.7 0h3.23v-3.23h-3.23v3.23Zm-242.114 80.72h3.229v-3.23h-3.229v3.23Zm80.706 0h3.229v-3.23h-3.229v3.23Zm80.708 0h3.23v-3.23h-3.23v3.23Zm80.7 0h3.23v-3.23h-3.23v3.23Zm-242.114 80.73h3.229v-3.23h-3.229v3.23Zm80.706 0h3.229v-3.23h-3.229v3.23Zm80.708 0h3.23v-3.23h-3.23v3.23Zm80.7 0h3.23v-3.23h-3.23v3.23Zm80.71-161.45h3.23v-3.23h-3.23v3.23Zm0 80.72h3.23v-3.23h-3.23v3.23Zm0 80.73h3.23v-3.23h-3.23v3.23Zm80.71-161.45h3.22v-3.23h-3.22v3.23Zm80.7 0h3.23v-3.23H1372v3.23Zm80.71 0h3.23v-3.23h-3.23v3.23Zm80.7 0h3.23v-3.23h-3.23v3.23Zm-242.11 80.72h3.22v-3.23h-3.22v3.23Zm80.7 0h3.23v-3.23H1372v3.23Zm80.71 0h3.23v-3.23h-3.23v3.23Zm80.7 0h3.23v-3.23h-3.23v3.23Zm-242.11 80.73h3.22v-3.23h-3.22v3.23Zm80.7 0h3.23v-3.23H1372v3.23Zm80.71 0h3.23v-3.23h-3.23v3.23Zm80.7 0h3.23v-3.23h-3.23v3.23Zm80.71-161.45h3.23v-3.23h-3.23v3.23Zm0 80.72h3.23v-3.23h-3.23v3.23Zm0 80.73h3.23v-3.23h-3.23v3.23ZM1694.83 3.229h3.23V0h-3.23v3.229Zm80.7 0h3.23V0h-3.23v3.229Zm80.71 0h3.23V0h-3.23v3.229Zm80.7 0h3.23V0h-3.23v3.229Zm-242.11 80.726h3.23v-3.23h-3.23v3.23Zm80.7 0h3.23v-3.23h-3.23v3.23Zm80.71 0h3.23v-3.23h-3.23v3.23Zm80.7 0h3.23v-3.23h-3.23v3.23Zm-242.11 80.725h3.23v-3.229h-3.23v3.229Zm80.7 0h3.23v-3.229h-3.23v3.229Zm80.71 0h3.23v-3.229h-3.23v3.229Zm80.7 0h3.23v-3.229h-3.23v3.229Zm-242.11 80.726h3.23v-3.229h-3.23v3.229Zm80.7 0h3.23v-3.229h-3.23v3.229Zm80.71 0h3.23v-3.229h-3.23v3.229Zm80.7 0h3.23v-3.229h-3.23v3.229Zm-242.11 80.726h3.23v-3.229h-3.23v3.229Zm80.7 0h3.23v-3.229h-3.23v3.229Zm80.71 0h3.23v-3.229h-3.23v3.229Zm80.7 0h3.23v-3.229h-3.23v3.229Zm-242.11 80.726h3.23v-3.23h-3.23v3.23Zm80.7 0h3.23v-3.23h-3.23v3.23Zm80.71 0h3.23v-3.23h-3.23v3.23Zm80.7 0h3.23v-3.23h-3.23v3.23Zm80.71-322.903h3.23v-3.23h-3.23v3.23Zm0 80.725h3.23v-3.229h-3.23v3.229Zm0 80.726h3.23v-3.229h-3.23v3.229Zm0 80.726h3.23v-3.229h-3.23v3.229Zm80.71-322.903h3.23V0h-3.23v3.229Zm80.7 0h3.23V0h-3.23v3.229Zm80.71 0h3.23V0h-3.23v3.229Zm80.71 0h3.22V0h-3.22v3.229Zm-242.12 80.726h3.23v-3.23h-3.23v3.23Zm80.7 0h3.23v-3.23h-3.23v3.23Zm80.71 0h3.23v-3.23h-3.23v3.23Zm80.71 0h3.22v-3.23h-3.22v3.23Zm-242.12 80.725h3.23v-3.229h-3.23v3.229Zm80.7 0h3.23v-3.229h-3.23v3.229Zm80.71 0h3.23v-3.229h-3.23v3.229Zm80.71 0h3.22v-3.229h-3.22v3.229Zm-242.12 80.726h3.23v-3.229h-3.23v3.229Zm80.7 0h3.23v-3.229h-3.23v3.229Zm80.71 0h3.23v-3.229h-3.23v3.229Zm80.71 0h3.22v-3.229h-3.22v3.229Zm-242.12 80.726h3.23v-3.229h-3.23v3.229Zm80.7 0h3.23v-3.229h-3.23v3.229Zm80.71 0h3.23v-3.229h-3.23v3.229Zm80.71 0h3.22v-3.229h-3.22v3.229Zm-242.12 80.726h3.23v-3.23h-3.23v3.23Zm80.7 0h3.23v-3.23h-3.23v3.23Zm80.71 0h3.23v-3.23h-3.23v3.23Zm80.71 0h3.22v-3.23h-3.22v3.23Zm80.7-322.903h3.23v-3.23h-3.23v3.23Zm0 80.725h3.23v-3.229h-3.23v3.229Zm0 80.726h3.23v-3.229h-3.23v3.229Zm0 80.726h3.23v-3.229h-3.23v3.229Zm-726.35 161.451h3.23v-3.229h-3.23v3.229Zm80.7 0h3.23v-3.229h-3.23v3.229Zm80.71 0h3.23v-3.229h-3.23v3.229Zm80.7 0h3.23v-3.229h-3.23v3.229Zm-242.11 80.726h3.23v-3.229h-3.23v3.229Zm80.7 0h3.23v-3.229h-3.23v3.229Zm80.71 0h3.23v-3.229h-3.23v3.229Zm80.7 0h3.23v-3.229h-3.23v3.229Zm-242.11 80.726h3.23v-3.229h-3.23v3.229Zm80.7 0h3.23v-3.229h-3.23v3.229Zm80.71 0h3.23v-3.229h-3.23v3.229Zm80.7 0h3.23v-3.229h-3.23v3.229Zm-242.11 80.725h3.23v-3.229h-3.23v3.229Zm80.7 0h3.23v-3.229h-3.23v3.229Zm80.71 0h3.23v-3.229h-3.23v3.229Zm80.7 0h3.23v-3.229h-3.23v3.229Zm-242.11 80.726h3.23v-3.229h-3.23v3.229Zm80.7 0h3.23v-3.229h-3.23v3.229Zm80.71 0h3.23v-3.229h-3.23v3.229Zm80.7 0h3.23v-3.229h-3.23v3.229Zm80.71-322.903h3.23v-3.229h-3.23v3.229Zm0 80.726h3.23v-3.229h-3.23v3.229Zm0 80.726h3.23v-3.229h-3.23v3.229Zm0 80.725h3.23v-3.229h-3.23v3.229Zm80.71-242.177h3.23v-3.229h-3.23v3.229Zm80.7 0h3.23v-3.229h-3.23v3.229Zm80.71 0h3.23v-3.229h-3.23v3.229Zm80.71 0h3.22v-3.229h-3.22v3.229Zm-242.12 80.726h3.23v-3.229h-3.23v3.229Zm80.7 0h3.23v-3.229h-3.23v3.229Zm80.71 0h3.23v-3.229h-3.23v3.229Zm80.71 0h3.22v-3.229h-3.22v3.229Zm-242.12 80.726h3.23v-3.229h-3.23v3.229Zm80.7 0h3.23v-3.229h-3.23v3.229Zm80.71 0h3.23v-3.229h-3.23v3.229Zm80.71 0h3.22v-3.229h-3.22v3.229Zm-242.12 80.725h3.23v-3.229h-3.23v3.229Zm80.7 0h3.23v-3.229h-3.23v3.229Zm80.71 0h3.23v-3.229h-3.23v3.229Zm80.71 0h3.22v-3.229h-3.22v3.229Zm-242.12 80.726h3.23v-3.229h-3.23v3.229Zm80.7 0h3.23v-3.229h-3.23v3.229Zm80.71 0h3.23v-3.229h-3.23v3.229Zm80.71 0h3.22v-3.229h-3.22v3.229Zm80.7-322.903h3.23v-3.229h-3.23v3.229Zm0 80.726h3.23v-3.229h-3.23v3.229Zm0 80.726h3.23v-3.229h-3.23v3.229Zm0 80.725h3.23v-3.229h-3.23v3.229Zm80.71-726.531h3.23V0h-3.23v3.229Zm80.7 0h3.23V0h-3.23v3.229Zm80.71 0h3.23V0h-3.23v3.229Zm80.71 0h3.22V0h-3.22v3.229Zm-242.12 80.726h3.23v-3.23h-3.23v3.23Zm80.7 0h3.23v-3.23h-3.23v3.23Zm80.71 0h3.23v-3.23h-3.23v3.23Zm80.71 0h3.22v-3.23h-3.22v3.23Zm-242.12 80.725h3.23v-3.229h-3.23v3.229Zm80.7 0h3.23v-3.229h-3.23v3.229Zm80.71 0h3.23v-3.229h-3.23v3.229Zm80.71 0h3.22v-3.229h-3.22v3.229Zm-242.12 80.726h3.23v-3.229h-3.23v3.229Zm80.7 0h3.23v-3.229h-3.23v3.229Zm80.71 0h3.23v-3.229h-3.23v3.229Zm80.71 0h3.22v-3.229h-3.22v3.229Zm-242.12 80.726h3.23v-3.229h-3.23v3.229Zm80.7 0h3.23v-3.229h-3.23v3.229Zm80.71 0h3.23v-3.229h-3.23v3.229Zm80.71 0h3.22v-3.229h-3.22v3.229Zm-242.12 80.726h3.23v-3.23h-3.23v3.23Zm80.7 0h3.23v-3.23h-3.23v3.23Zm80.71 0h3.23v-3.23h-3.23v3.23Zm80.71 0h3.22v-3.23h-3.22v3.23Zm80.7-322.903h3.23v-3.23h-3.23v3.23Zm0 80.725h3.23v-3.229h-3.23v3.229Zm0 80.726h3.23v-3.229h-3.23v3.229Zm0 80.726h3.23v-3.229h-3.23v3.229Zm80.71-322.903h3.23V0h-3.23v3.229Zm80.7 0h3.23V0h-3.23v3.229Zm80.71 0h3.23V0h-3.23v3.229Zm80.71 0h3.22V0h-3.22v3.229Zm-242.12 80.726h3.23v-3.23h-3.23v3.23Zm80.7 0h3.23v-3.23h-3.23v3.23Zm80.71 0h3.23v-3.23h-3.23v3.23Zm80.71 0h3.22v-3.23h-3.22v3.23Zm-242.12 80.725h3.23v-3.229h-3.23v3.229Zm80.7 0h3.23v-3.229h-3.23v3.229Zm80.71 0h3.23v-3.229h-3.23v3.229Zm80.71 0h3.22v-3.229h-3.22v3.229Zm-242.12 80.726h3.23v-3.229h-3.23v3.229Zm80.7 0h3.23v-3.229h-3.23v3.229Zm80.71 0h3.23v-3.229h-3.23v3.229Zm80.71 0h3.22v-3.229h-3.22v3.229Zm-242.12 80.726h3.23v-3.229h-3.23v3.229Zm80.7 0h3.23v-3.229h-3.23v3.229Zm80.71 0h3.23v-3.229h-3.23v3.229Zm80.71 0h3.22v-3.229h-3.22v3.229Zm-242.12 80.726h3.23v-3.23h-3.23v3.23Zm80.7 0h3.23v-3.23h-3.23v3.23Zm80.71 0h3.23v-3.23h-3.23v3.23Zm80.71 0h3.22v-3.23h-3.22v3.23Zm80.7-322.903h3.23v-3.23h-3.23v3.23Zm0 80.725h3.23v-3.229h-3.23v3.229Zm0 80.726h3.23v-3.229h-3.23v3.229Zm0 80.726h3.23v-3.229h-3.23v3.229Zm-726.35 161.451h3.23v-3.229h-3.23v3.229Zm80.7 0h3.23v-3.229h-3.23v3.229Zm80.71 0h3.23v-3.229h-3.23v3.229Zm80.71 0h3.22v-3.229h-3.22v3.229Zm-242.12 80.726h3.23v-3.229h-3.23v3.229Zm80.7 0h3.23v-3.229h-3.23v3.229Zm80.71 0h3.23v-3.229h-3.23v3.229Zm80.71 0h3.22v-3.229h-3.22v3.229Zm-242.12 80.726h3.23v-3.229h-3.23v3.229Zm80.7 0h3.23v-3.229h-3.23v3.229Zm80.71 0h3.23v-3.229h-3.23v3.229Zm80.71 0h3.22v-3.229h-3.22v3.229Zm-242.12 80.725h3.23v-3.229h-3.23v3.229Zm80.7 0h3.23v-3.229h-3.23v3.229Zm80.71 0h3.23v-3.229h-3.23v3.229Zm80.71 0h3.22v-3.229h-3.22v3.229Zm-242.12 80.726h3.23v-3.229h-3.23v3.229Zm80.7 0h3.23v-3.229h-3.23v3.229Zm80.71 0h3.23v-3.229h-3.23v3.229Zm80.71 0h3.22v-3.229h-3.22v3.229Zm80.7-322.903h3.23v-3.229h-3.23v3.229Zm0 80.726h3.23v-3.229h-3.23v3.229Zm0 80.726h3.23v-3.229h-3.23v3.229Zm0 80.725h3.23v-3.229h-3.23v3.229Zm80.71-242.177h3.23v-3.229h-3.23v3.229Zm80.7 0h3.23v-3.229h-3.23v3.229Zm80.71 0h3.23v-3.229h-3.23v3.229Zm80.71 0h3.22v-3.229h-3.22v3.229Zm-242.12 80.726h3.23v-3.229h-3.23v3.229Zm80.7 0h3.23v-3.229h-3.23v3.229Zm80.71 0h3.23v-3.229h-3.23v3.229Zm80.71 0h3.22v-3.229h-3.22v3.229Zm-242.12 80.726h3.23v-3.229h-3.23v3.229Zm80.7 0h3.23v-3.229h-3.23v3.229Zm80.71 0h3.23v-3.229h-3.23v3.229Zm80.71 0h3.22v-3.229h-3.22v3.229Zm-242.12 80.725h3.23v-3.229h-3.23v3.229Zm80.7 0h3.23v-3.229h-3.23v3.229Zm80.71 0h3.23v-3.229h-3.23v3.229Zm80.71 0h3.22v-3.229h-3.22v3.229Zm-242.12 80.726h3.23v-3.229h-3.23v3.229Zm80.7 0h3.23v-3.229h-3.23v3.229Zm80.71 0h3.23v-3.229h-3.23v3.229Zm80.71 0h3.22v-3.229h-3.22v3.229Zm80.7-322.903h3.23v-3.229h-3.23v3.229Zm0 80.726h3.23v-3.229h-3.23v3.229Zm0 80.726h3.23v-3.229h-3.23v3.229Zm0 80.725h3.23v-3.229h-3.23v3.229ZM1694.83 891.212h3.23v-3.229h-3.23v3.229Zm80.7 0h3.23v-3.229h-3.23v3.229Zm80.71 0h3.23v-3.229h-3.23v3.229Zm80.7 0h3.23v-3.229h-3.23v3.229Zm-242.11 80.725h3.23v-3.229h-3.23v3.229Zm80.7 0h3.23v-3.229h-3.23v3.229Zm80.71 0h3.23v-3.229h-3.23v3.229Zm80.7 0h3.23v-3.229h-3.23v3.229Zm-242.11 80.723h3.23v-3.23h-3.23v3.23Zm80.7 0h3.23v-3.23h-3.23v3.23Zm80.71 0h3.23v-3.23h-3.23v3.23Zm80.7 0h3.23v-3.23h-3.23v3.23Zm-242.11 80.73h3.23v-3.23h-3.23v3.23Zm80.7 0h3.23v-3.23h-3.23v3.23Zm80.71 0h3.23v-3.23h-3.23v3.23Zm80.7 0h3.23v-3.23h-3.23v3.23Zm-242.11 80.72h3.23v-3.22h-3.23v3.22Zm80.7 0h3.23v-3.22h-3.23v3.22Zm80.71 0h3.23v-3.22h-3.23v3.22Zm80.7 0h3.23v-3.22h-3.23v3.22Zm80.71-322.898h3.23v-3.229h-3.23v3.229Zm0 80.725h3.23v-3.229h-3.23v3.229Zm0 80.723h3.23v-3.23h-3.23v3.23Zm0 80.73h3.23v-3.23h-3.23v3.23Zm80.71-242.178h3.23v-3.229h-3.23v3.229Zm80.7 0h3.23v-3.229h-3.23v3.229Zm80.71 0h3.23v-3.229h-3.23v3.229Zm80.71 0h3.22v-3.229h-3.22v3.229Zm-242.12 80.725h3.23v-3.229h-3.23v3.229Zm80.7 0h3.23v-3.229h-3.23v3.229Zm80.71 0h3.23v-3.229h-3.23v3.229Zm80.71 0h3.22v-3.229h-3.22v3.229Zm-242.12 80.723h3.23v-3.23h-3.23v3.23Zm80.7 0h3.23v-3.23h-3.23v3.23Zm80.71 0h3.23v-3.23h-3.23v3.23Zm80.71 0h3.22v-3.23h-3.22v3.23Zm-242.12 80.73h3.23v-3.23h-3.23v3.23Zm80.7 0h3.23v-3.23h-3.23v3.23Zm80.71 0h3.23v-3.23h-3.23v3.23Zm80.71 0h3.22v-3.23h-3.22v3.23Zm-242.12 80.72h3.23v-3.22h-3.23v3.22Zm80.7 0h3.23v-3.22h-3.23v3.22Zm80.71 0h3.23v-3.22h-3.23v3.22Zm80.71 0h3.22v-3.22h-3.22v3.22Zm80.7-322.898h3.23v-3.229h-3.23v3.229Zm0 80.725h3.23v-3.229h-3.23v3.229Zm0 80.723h3.23v-3.23h-3.23v3.23Zm0 80.73h3.23v-3.23h-3.23v3.23Zm-726.35 161.45h3.23v-3.23h-3.23v3.23Zm80.7 0h3.23v-3.23h-3.23v3.23Zm80.71 0h3.23v-3.23h-3.23v3.23Zm80.7 0h3.23v-3.23h-3.23v3.23Zm-242.11 80.73h3.23v-3.23h-3.23v3.23Zm80.7 0h3.23v-3.23h-3.23v3.23Zm80.71 0h3.23v-3.23h-3.23v3.23Zm80.7 0h3.23v-3.23h-3.23v3.23Zm-242.11 80.72h3.23v-3.23h-3.23v3.23Zm80.7 0h3.23v-3.23h-3.23v3.23Zm80.71 0h3.23v-3.23h-3.23v3.23Zm80.7 0h3.23v-3.23h-3.23v3.23Zm-242.11 80.73h3.23v-3.23h-3.23v3.23Zm80.7 0h3.23v-3.23h-3.23v3.23Zm80.71 0h3.23v-3.23h-3.23v3.23Zm80.7 0h3.23v-3.23h-3.23v3.23Zm-242.11 80.72h3.23v-3.23h-3.23v3.23Zm80.7 0h3.23v-3.23h-3.23v3.23Zm80.71 0h3.23v-3.23h-3.23v3.23Zm80.7 0h3.23v-3.23h-3.23v3.23Zm80.71-322.9h3.23v-3.23h-3.23v3.23Zm0 80.73h3.23v-3.23h-3.23v3.23Zm0 80.72h3.23v-3.23h-3.23v3.23Zm0 80.73h3.23v-3.23h-3.23v3.23Zm80.71-242.18h3.23v-3.23h-3.23v3.23Zm80.7 0h3.23v-3.23h-3.23v3.23Zm80.71 0h3.23v-3.23h-3.23v3.23Zm80.71 0h3.22v-3.23h-3.22v3.23Zm-242.12 80.73h3.23v-3.23h-3.23v3.23Zm80.7 0h3.23v-3.23h-3.23v3.23Zm80.71 0h3.23v-3.23h-3.23v3.23Zm80.71 0h3.22v-3.23h-3.22v3.23Zm-242.12 80.72h3.23v-3.23h-3.23v3.23Zm80.7 0h3.23v-3.23h-3.23v3.23Zm80.71 0h3.23v-3.23h-3.23v3.23Zm80.71 0h3.22v-3.23h-3.22v3.23Zm-242.12 80.73h3.23v-3.23h-3.23v3.23Zm80.7 0h3.23v-3.23h-3.23v3.23Zm80.71 0h3.23v-3.23h-3.23v3.23Zm80.71 0h3.22v-3.23h-3.22v3.23Zm-242.12 80.72h3.23v-3.23h-3.23v3.23Zm80.7 0h3.23v-3.23h-3.23v3.23Zm80.71 0h3.23v-3.23h-3.23v3.23Zm80.71 0h3.22v-3.23h-3.22v3.23Zm80.7-322.9h3.23v-3.23h-3.23v3.23Zm0 80.73h3.23v-3.23h-3.23v3.23Zm0 80.72h3.23v-3.23h-3.23v3.23Zm0 80.73h3.23v-3.23h-3.23v3.23Zm80.71-645.808h3.23v-3.229h-3.23v3.229Zm80.7 0h3.23v-3.229h-3.23v3.229Zm80.71 0h3.23v-3.229h-3.23v3.229Zm80.71 0h3.22v-3.229h-3.22v3.229Zm-242.12 80.725h3.23v-3.229h-3.23v3.229Zm80.7 0h3.23v-3.229h-3.23v3.229Zm80.71 0h3.23v-3.229h-3.23v3.229Zm80.71 0h3.22v-3.229h-3.22v3.229Zm-242.12 80.723h3.23v-3.23h-3.23v3.23Zm80.7 0h3.23v-3.23h-3.23v3.23Zm80.71 0h3.23v-3.23h-3.23v3.23Zm80.71 0h3.22v-3.23h-3.22v3.23Zm-242.12 80.73h3.23v-3.23h-3.23v3.23Zm80.7 0h3.23v-3.23h-3.23v3.23Zm80.71 0h3.23v-3.23h-3.23v3.23Zm80.71 0h3.22v-3.23h-3.22v3.23Zm-242.12 80.72h3.23v-3.22h-3.23v3.22Zm80.7 0h3.23v-3.22h-3.23v3.22Zm80.71 0h3.23v-3.22h-3.23v3.22Zm80.71 0h3.22v-3.22h-3.22v3.22Zm80.7-322.898h3.23v-3.229h-3.23v3.229Zm0 80.725h3.23v-3.229h-3.23v3.229Zm0 80.723h3.23v-3.23h-3.23v3.23Zm0 80.73h3.23v-3.23h-3.23v3.23Zm80.71-242.178h3.23v-3.229h-3.23v3.229Zm80.7 0h3.23v-3.229h-3.23v3.229Zm80.71 0h3.23v-3.229h-3.23v3.229Zm80.71 0h3.22v-3.229h-3.22v3.229Zm-242.12 80.725h3.23v-3.229h-3.23v3.229Zm80.7 0h3.23v-3.229h-3.23v3.229Zm80.71 0h3.23v-3.229h-3.23v3.229Zm80.71 0h3.22v-3.229h-3.22v3.229Zm-242.12 80.723h3.23v-3.23h-3.23v3.23Zm80.7 0h3.23v-3.23h-3.23v3.23Zm80.71 0h3.23v-3.23h-3.23v3.23Zm80.71 0h3.22v-3.23h-3.22v3.23Zm-242.12 80.73h3.23v-3.23h-3.23v3.23Zm80.7 0h3.23v-3.23h-3.23v3.23Zm80.71 0h3.23v-3.23h-3.23v3.23Zm80.71 0h3.22v-3.23h-3.22v3.23Zm-242.12 80.72h3.23v-3.22h-3.23v3.22Zm80.7 0h3.23v-3.22h-3.23v3.22Zm80.71 0h3.23v-3.22h-3.23v3.22Zm80.71 0h3.22v-3.22h-3.22v3.22Zm80.7-322.898h3.23v-3.229h-3.23v3.229Zm0 80.725h3.23v-3.229h-3.23v3.229Zm0 80.723h3.23v-3.23h-3.23v3.23Zm0 80.73h3.23v-3.23h-3.23v3.23Zm-726.35 161.45h3.23v-3.23h-3.23v3.23Zm80.7 0h3.23v-3.23h-3.23v3.23Zm80.71 0h3.23v-3.23h-3.23v3.23Zm80.71 0h3.22v-3.23h-3.22v3.23Zm-242.12 80.73h3.23v-3.23h-3.23v3.23Zm80.7 0h3.23v-3.23h-3.23v3.23Zm80.71 0h3.23v-3.23h-3.23v3.23Zm80.71 0h3.22v-3.23h-3.22v3.23Zm-242.12 80.72h3.23v-3.23h-3.23v3.23Zm80.7 0h3.23v-3.23h-3.23v3.23Zm80.71 0h3.23v-3.23h-3.23v3.23Zm80.71 0h3.22v-3.23h-3.22v3.23Zm-242.12 80.73h3.23v-3.23h-3.23v3.23Zm80.7 0h3.23v-3.23h-3.23v3.23Zm80.71 0h3.23v-3.23h-3.23v3.23Zm80.71 0h3.22v-3.23h-3.22v3.23Zm-242.12 80.72h3.23v-3.23h-3.23v3.23Zm80.7 0h3.23v-3.23h-3.23v3.23Zm80.71 0h3.23v-3.23h-3.23v3.23Zm80.71 0h3.22v-3.23h-3.22v3.23Zm80.7-322.9h3.23v-3.23h-3.23v3.23Zm0 80.73h3.23v-3.23h-3.23v3.23Zm0 80.72h3.23v-3.23h-3.23v3.23Zm0 80.73h3.23v-3.23h-3.23v3.23Zm80.71-242.18h3.23v-3.23h-3.23v3.23Zm80.7 0h3.23v-3.23h-3.23v3.23Zm80.71 0h3.23v-3.23h-3.23v3.23Zm80.71 0h3.22v-3.23h-3.22v3.23Zm-242.12 80.73h3.23v-3.23h-3.23v3.23Zm80.7 0h3.23v-3.23h-3.23v3.23Zm80.71 0h3.23v-3.23h-3.23v3.23Zm80.71 0h3.22v-3.23h-3.22v3.23Zm-242.12 80.72h3.23v-3.23h-3.23v3.23Zm80.7 0h3.23v-3.23h-3.23v3.23Zm80.71 0h3.23v-3.23h-3.23v3.23Zm80.71 0h3.22v-3.23h-3.22v3.23Zm-242.12 80.73h3.23v-3.23h-3.23v3.23Zm80.7 0h3.23v-3.23h-3.23v3.23Zm80.71 0h3.23v-3.23h-3.23v3.23Zm80.71 0h3.22v-3.23h-3.22v3.23Zm-242.12 80.72h3.23v-3.23h-3.23v3.23Zm80.7 0h3.23v-3.23h-3.23v3.23Zm80.71 0h3.23v-3.23h-3.23v3.23Zm80.71 0h3.22v-3.23h-3.22v3.23Zm80.7-322.9h3.23v-3.23h-3.23v3.23Zm0 80.73h3.23v-3.23h-3.23v3.23Zm0 80.72h3.23v-3.23h-3.23v3.23Zm0 80.73h3.23v-3.23h-3.23v3.23Zm-1533.41 161.45h3.23v-3.23h-3.23v3.23Zm80.7 0h3.23v-3.23h-3.23v3.23Zm80.71 0h3.23v-3.23h-3.23v3.23Zm80.7 0h3.23v-3.23h-3.23v3.23Zm-242.11 80.72h3.23v-3.22h-3.23v3.22Zm80.7 0h3.23v-3.22h-3.23v3.22Zm80.71 0h3.23v-3.22h-3.23v3.22Zm80.7 0h3.23v-3.22h-3.23v3.22Zm-242.11 80.73h3.23v-3.23h-3.23v3.23Zm80.7 0h3.23v-3.23h-3.23v3.23Zm80.71 0h3.23v-3.23h-3.23v3.23Zm80.7 0h3.23v-3.23h-3.23v3.23Zm-242.11 80.73h3.23v-3.23h-3.23v3.23Zm80.7 0h3.23v-3.23h-3.23v3.23Zm80.71 0h3.23v-3.23h-3.23v3.23Zm80.7 0h3.23v-3.23h-3.23v3.23Zm-242.11 80.72h3.23v-3.23h-3.23v3.23Zm80.7 0h3.23v-3.23h-3.23v3.23Zm80.71 0h3.23v-3.23h-3.23v3.23Zm80.7 0h3.23v-3.23h-3.23v3.23Zm80.71-322.9h3.23v-3.23h-3.23v3.23Zm0 80.72h3.23v-3.22h-3.23v3.22Zm0 80.73h3.23v-3.23h-3.23v3.23Zm0 80.73h3.23v-3.23h-3.23v3.23Zm80.71-242.18h3.23v-3.23h-3.23v3.23Zm80.7 0h3.23v-3.23h-3.23v3.23Zm80.71 0h3.23v-3.23h-3.23v3.23Zm80.71 0h3.22v-3.23h-3.22v3.23Zm-242.12 80.72h3.23v-3.22h-3.23v3.22Zm80.7 0h3.23v-3.22h-3.23v3.22Zm80.71 0h3.23v-3.22h-3.23v3.22Zm80.71 0h3.22v-3.22h-3.22v3.22Zm-242.12 80.73h3.23v-3.23h-3.23v3.23Zm80.7 0h3.23v-3.23h-3.23v3.23Zm80.71 0h3.23v-3.23h-3.23v3.23Zm80.71 0h3.22v-3.23h-3.22v3.23Zm-242.12 80.73h3.23v-3.23h-3.23v3.23Zm80.7 0h3.23v-3.23h-3.23v3.23Zm80.71 0h3.23v-3.23h-3.23v3.23Zm80.71 0h3.22v-3.23h-3.22v3.23Zm-242.12 80.72h3.23v-3.23h-3.23v3.23Zm80.7 0h3.23v-3.23h-3.23v3.23Zm80.71 0h3.23v-3.23h-3.23v3.23Zm80.71 0h3.22v-3.23h-3.22v3.23Zm80.7-322.9h3.23v-3.23h-3.23v3.23Zm0 80.72h3.23v-3.22h-3.23v3.22Zm0 80.73h3.23v-3.23h-3.23v3.23Zm0 80.73h3.23v-3.23h-3.23v3.23Zm-726.35 161.45h3.23v-3.23h-3.23v3.23Zm80.7 0h3.23v-3.23h-3.23v3.23Zm80.71 0h3.23v-3.23h-3.23v3.23Zm80.7 0h3.23v-3.23h-3.23v3.23Zm-242.11 80.72h3.23v-3.23h-3.23v3.23Zm80.7 0h3.23v-3.23h-3.23v3.23Zm80.71 0h3.23v-3.23h-3.23v3.23Zm80.7 0h3.23v-3.23h-3.23v3.23Zm-242.11 80.73h3.23v-3.23h-3.23v3.23Zm80.7 0h3.23v-3.23h-3.23v3.23Zm80.71 0h3.23v-3.23h-3.23v3.23Zm80.7 0h3.23v-3.23h-3.23v3.23Zm80.71-161.45h3.23v-3.23h-3.23v3.23Zm0 80.72h3.23v-3.23h-3.23v3.23Zm0 80.73h3.23v-3.23h-3.23v3.23Zm80.71-161.45h3.23v-3.23h-3.23v3.23Zm80.7 0h3.23v-3.23h-3.23v3.23Zm80.71 0h3.23v-3.23h-3.23v3.23Zm80.71 0h3.22v-3.23h-3.22v3.23Zm-242.12 80.72h3.23v-3.23h-3.23v3.23Zm80.7 0h3.23v-3.23h-3.23v3.23Zm80.71 0h3.23v-3.23h-3.23v3.23Zm80.71 0h3.22v-3.23h-3.22v3.23Zm-242.12 80.73h3.23v-3.23h-3.23v3.23Zm80.7 0h3.23v-3.23h-3.23v3.23Zm80.71 0h3.23v-3.23h-3.23v3.23Zm80.71 0h3.22v-3.23h-3.22v3.23Zm80.7-161.45h3.23v-3.23h-3.23v3.23Zm0 80.72h3.23v-3.23h-3.23v3.23Zm0 80.73h3.23v-3.23h-3.23v3.23Zm80.71-565.08h3.23v-3.23h-3.23v3.23Zm80.7 0h3.23v-3.23h-3.23v3.23Zm80.71 0h3.23v-3.23h-3.23v3.23Zm80.71 0h3.22v-3.23h-3.22v3.23Zm-242.12 80.72h3.23v-3.22h-3.23v3.22Zm80.7 0h3.23v-3.22h-3.23v3.22Zm80.71 0h3.23v-3.22h-3.23v3.22Zm80.71 0h3.22v-3.22h-3.22v3.22Zm-242.12 80.73h3.23v-3.23h-3.23v3.23Zm80.7 0h3.23v-3.23h-3.23v3.23Zm80.71 0h3.23v-3.23h-3.23v3.23Zm80.71 0h3.22v-3.23h-3.22v3.23Zm-242.12 80.73h3.23v-3.23h-3.23v3.23Zm80.7 0h3.23v-3.23h-3.23v3.23Zm80.71 0h3.23v-3.23h-3.23v3.23Zm80.71 0h3.22v-3.23h-3.22v3.23Zm-242.12 80.72h3.23v-3.23h-3.23v3.23Zm80.7 0h3.23v-3.23h-3.23v3.23Zm80.71 0h3.23v-3.23h-3.23v3.23Zm80.71 0h3.22v-3.23h-3.22v3.23Zm80.7-322.9h3.23v-3.23h-3.23v3.23Zm0 80.72h3.23v-3.22h-3.23v3.22Zm0 80.73h3.23v-3.23h-3.23v3.23Zm0 80.73h3.23v-3.23h-3.23v3.23Zm80.71-242.18h3.23v-3.23h-3.23v3.23Zm80.7 0h3.23v-3.23h-3.23v3.23Zm80.71 0h3.23v-3.23h-3.23v3.23Zm80.71 0h3.22v-3.23h-3.22v3.23Zm-242.12 80.72h3.23v-3.22h-3.23v3.22Zm80.7 0h3.23v-3.22h-3.23v3.22Zm80.71 0h3.23v-3.22h-3.23v3.22Zm80.71 0h3.22v-3.22h-3.22v3.22Zm-242.12 80.73h3.23v-3.23h-3.23v3.23Zm80.7 0h3.23v-3.23h-3.23v3.23Zm80.71 0h3.23v-3.23h-3.23v3.23Zm80.71 0h3.22v-3.23h-3.22v3.23Zm-242.12 80.73h3.23v-3.23h-3.23v3.23Zm80.7 0h3.23v-3.23h-3.23v3.23Zm80.71 0h3.23v-3.23h-3.23v3.23Zm80.71 0h3.22v-3.23h-3.22v3.23Zm-242.12 80.72h3.23v-3.23h-3.23v3.23Zm80.7 0h3.23v-3.23h-3.23v3.23Zm80.71 0h3.23v-3.23h-3.23v3.23Zm80.71 0h3.22v-3.23h-3.22v3.23Zm80.7-322.9h3.23v-3.23h-3.23v3.23Zm0 80.72h3.23v-3.22h-3.23v3.22Zm0 80.73h3.23v-3.23h-3.23v3.23Zm0 80.73h3.23v-3.23h-3.23v3.23Zm-726.35 161.45h3.23v-3.23h-3.23v3.23Zm80.7 0h3.23v-3.23h-3.23v3.23Zm80.71 0h3.23v-3.23h-3.23v3.23Zm80.71 0h3.22v-3.23h-3.22v3.23Zm-242.12 80.72h3.23v-3.23h-3.23v3.23Zm80.7 0h3.23v-3.23h-3.23v3.23Zm80.71 0h3.23v-3.23h-3.23v3.23Zm80.71 0h3.22v-3.23h-3.22v3.23Zm-242.12 80.73h3.23v-3.23h-3.23v3.23Zm80.7 0h3.23v-3.23h-3.23v3.23Zm80.71 0h3.23v-3.23h-3.23v3.23Zm80.71 0h3.22v-3.23h-3.22v3.23Zm80.7-161.45h3.23v-3.23h-3.23v3.23Zm0 80.72h3.23v-3.23h-3.23v3.23Zm0 80.73h3.23v-3.23h-3.23v3.23Zm80.71-161.45h3.23v-3.23h-3.23v3.23Zm80.7 0h3.23v-3.23h-3.23v3.23Zm80.71 0h3.23v-3.23h-3.23v3.23Zm80.71 0h3.22v-3.23h-3.22v3.23Zm-242.12 80.72h3.23v-3.23h-3.23v3.23Zm80.7 0h3.23v-3.23h-3.23v3.23Zm80.71 0h3.23v-3.23h-3.23v3.23Zm80.71 0h3.22v-3.23h-3.22v3.23Zm-242.12 80.73h3.23v-3.23h-3.23v3.23Zm80.7 0h3.23v-3.23h-3.23v3.23Zm80.71 0h3.23v-3.23h-3.23v3.23Zm80.71 0h3.22v-3.23h-3.22v3.23Zm80.7-161.45h3.23v-3.23h-3.23v3.23Zm0 80.72h3.23v-3.23h-3.23v3.23Zm0 80.73h3.23v-3.23h-3.23v3.23ZM3308.95 3.229h3.23V0h-3.23v3.229Zm80.7 0h3.23V0h-3.23v3.229Zm80.71 0h3.23V0h-3.23v3.229Zm80.71 0h3.22V0h-3.22v3.229Zm-242.12 80.726h3.23v-3.23h-3.23v3.23Zm80.7 0h3.23v-3.23h-3.23v3.23Zm80.71 0h3.23v-3.23h-3.23v3.23Zm80.71 0h3.22v-3.23h-3.22v3.23Zm-242.12 80.725h3.23v-3.229h-3.23v3.229Zm80.7 0h3.23v-3.229h-3.23v3.229Zm80.71 0h3.23v-3.229h-3.23v3.229Zm80.71 0h3.22v-3.229h-3.22v3.229Zm-242.12 80.726h3.23v-3.229h-3.23v3.229Zm80.7 0h3.23v-3.229h-3.23v3.229Zm80.71 0h3.23v-3.229h-3.23v3.229Zm80.71 0h3.22v-3.229h-3.22v3.229Zm-242.12 80.726h3.23v-3.229h-3.23v3.229Zm80.7 0h3.23v-3.229h-3.23v3.229Zm80.71 0h3.23v-3.229h-3.23v3.229Zm80.71 0h3.22v-3.229h-3.22v3.229Zm-242.12 80.726h3.23v-3.23h-3.23v3.23Zm80.7 0h3.23v-3.23h-3.23v3.23Zm80.71 0h3.23v-3.23h-3.23v3.23Zm80.71 0h3.22v-3.23h-3.22v3.23Zm80.7-322.903h3.23v-3.23h-3.23v3.23Zm0 80.725h3.23v-3.229h-3.23v3.229Zm0 80.726h3.23v-3.229h-3.23v3.229Zm0 80.726h3.23v-3.229h-3.23v3.229Zm-322.82 161.451h3.23v-3.229h-3.23v3.229Zm80.7 0h3.23v-3.229h-3.23v3.229Zm80.71 0h3.23v-3.229h-3.23v3.229Zm80.71 0h3.22v-3.229h-3.22v3.229Zm-242.12 80.726h3.23v-3.229h-3.23v3.229Zm80.7 0h3.23v-3.229h-3.23v3.229Zm80.71 0h3.23v-3.229h-3.23v3.229Zm80.71 0h3.22v-3.229h-3.22v3.229Zm-242.12 80.726h3.23v-3.229h-3.23v3.229Zm80.7 0h3.23v-3.229h-3.23v3.229Zm80.71 0h3.23v-3.229h-3.23v3.229Zm80.71 0h3.22v-3.229h-3.22v3.229Zm-242.12 80.725h3.23v-3.229h-3.23v3.229Zm80.7 0h3.23v-3.229h-3.23v3.229Zm80.71 0h3.23v-3.229h-3.23v3.229Zm80.71 0h3.22v-3.229h-3.22v3.229Zm-242.12 80.726h3.23v-3.229h-3.23v3.229Zm80.7 0h3.23v-3.229h-3.23v3.229Zm80.71 0h3.23v-3.229h-3.23v3.229Zm80.71 0h3.22v-3.229h-3.22v3.229Zm80.7-322.903h3.23v-3.229h-3.23v3.229Zm0 80.726h3.23v-3.229h-3.23v3.229Zm0 80.726h3.23v-3.229h-3.23v3.229Zm0 80.725h3.23v-3.229h-3.23v3.229Zm-322.82 161.452h3.23v-3.229h-3.23v3.229Zm80.7 0h3.23v-3.229h-3.23v3.229Zm80.71 0h3.23v-3.229h-3.23v3.229Zm80.71 0h3.22v-3.229h-3.22v3.229Zm-242.12 80.725h3.23v-3.229h-3.23v3.229Zm80.7 0h3.23v-3.229h-3.23v3.229Zm80.71 0h3.23v-3.229h-3.23v3.229Zm80.71 0h3.22v-3.229h-3.22v3.229Zm-242.12 80.723h3.23v-3.23h-3.23v3.23Zm80.7 0h3.23v-3.23h-3.23v3.23Zm80.71 0h3.23v-3.23h-3.23v3.23Zm80.71 0h3.22v-3.23h-3.22v3.23Zm-242.12 80.73h3.23v-3.23h-3.23v3.23Zm80.7 0h3.23v-3.23h-3.23v3.23Zm80.71 0h3.23v-3.23h-3.23v3.23Zm80.71 0h3.22v-3.23h-3.22v3.23Zm-242.12 80.72h3.23v-3.22h-3.23v3.22Zm80.7 0h3.23v-3.22h-3.23v3.22Zm80.71 0h3.23v-3.22h-3.23v3.22Zm80.71 0h3.22v-3.22h-3.22v3.22Zm80.7-322.898h3.23v-3.229h-3.23v3.229Zm0 80.725h3.23v-3.229h-3.23v3.229Zm0 80.723h3.23v-3.23h-3.23v3.23Zm0 80.73h3.23v-3.23h-3.23v3.23Zm-322.82 161.45h3.23v-3.23h-3.23v3.23Zm80.7 0h3.23v-3.23h-3.23v3.23Zm80.71 0h3.23v-3.23h-3.23v3.23Zm80.71 0h3.22v-3.23h-3.22v3.23Zm-242.12 80.73h3.23v-3.23h-3.23v3.23Zm80.7 0h3.23v-3.23h-3.23v3.23Zm80.71 0h3.23v-3.23h-3.23v3.23Zm80.71 0h3.22v-3.23h-3.22v3.23Zm-242.12 80.72h3.23v-3.23h-3.23v3.23Zm80.7 0h3.23v-3.23h-3.23v3.23Zm80.71 0h3.23v-3.23h-3.23v3.23Zm80.71 0h3.22v-3.23h-3.22v3.23Zm-242.12 80.73h3.23v-3.23h-3.23v3.23Zm80.7 0h3.23v-3.23h-3.23v3.23Zm80.71 0h3.23v-3.23h-3.23v3.23Zm80.71 0h3.22v-3.23h-3.22v3.23Zm-242.12 80.72h3.23v-3.23h-3.23v3.23Zm80.7 0h3.23v-3.23h-3.23v3.23Zm80.71 0h3.23v-3.23h-3.23v3.23Zm80.71 0h3.22v-3.23h-3.22v3.23Zm80.7-322.9h3.23v-3.23h-3.23v3.23Zm0 80.73h3.23v-3.23h-3.23v3.23Zm0 80.72h3.23v-3.23h-3.23v3.23Zm0 80.73h3.23v-3.23h-3.23v3.23Zm-322.82 161.45h3.23v-3.23h-3.23v3.23Zm80.7 0h3.23v-3.23h-3.23v3.23Zm80.71 0h3.23v-3.23h-3.23v3.23Zm80.71 0h3.22v-3.23h-3.22v3.23Zm-242.12 80.72h3.23v-3.22h-3.23v3.22Zm80.7 0h3.23v-3.22h-3.23v3.22Zm80.71 0h3.23v-3.22h-3.23v3.22Zm80.71 0h3.22v-3.22h-3.22v3.22Zm-242.12 80.73h3.23v-3.23h-3.23v3.23Zm80.7 0h3.23v-3.23h-3.23v3.23Zm80.71 0h3.23v-3.23h-3.23v3.23Zm80.71 0h3.22v-3.23h-3.22v3.23Zm-242.12 80.73h3.23v-3.23h-3.23v3.23Zm80.7 0h3.23v-3.23h-3.23v3.23Zm80.71 0h3.23v-3.23h-3.23v3.23Zm80.71 0h3.22v-3.23h-3.22v3.23Zm-242.12 80.72h3.23v-3.23h-3.23v3.23Zm80.7 0h3.23v-3.23h-3.23v3.23Zm80.71 0h3.23v-3.23h-3.23v3.23Zm80.71 0h3.22v-3.23h-3.22v3.23Zm80.7-322.9h3.23v-3.23h-3.23v3.23Zm0 80.72h3.23v-3.22h-3.23v3.22Zm0 80.73h3.23v-3.23h-3.23v3.23Zm0 80.73h3.23v-3.23h-3.23v3.23Zm-322.82 161.45h3.23v-3.23h-3.23v3.23Zm80.7 0h3.23v-3.23h-3.23v3.23Zm80.71 0h3.23v-3.23h-3.23v3.23Zm80.71 0h3.22v-3.23h-3.22v3.23Zm-242.12 80.72h3.23v-3.23h-3.23v3.23Zm80.7 0h3.23v-3.23h-3.23v3.23Zm80.71 0h3.23v-3.23h-3.23v3.23Zm80.71 0h3.22v-3.23h-3.22v3.23Zm-242.12 80.73h3.23v-3.23h-3.23v3.23Zm80.7 0h3.23v-3.23h-3.23v3.23Zm80.71 0h3.23v-3.23h-3.23v3.23Zm80.71 0h3.22v-3.23h-3.22v3.23Zm80.7-161.45h3.23v-3.23h-3.23v3.23Zm0 80.72h3.23v-3.23h-3.23v3.23Zm0 80.73h3.23v-3.23h-3.23v3.23ZM80.706 2344.27h3.228v-3.22h-3.228v3.22Zm80.706 0h3.228v-3.22h-3.228v3.22Zm80.706 0h3.228v-3.22h-3.228v3.22Zm80.706 0h3.228v-3.22h-3.228v3.22ZM80.706 2425h3.228v-3.23h-3.228v3.23Zm80.706 0h3.228v-3.23h-3.228v3.23Zm80.706 0h3.228v-3.23h-3.228v3.23Zm80.706 0h3.228v-3.23h-3.228v3.23Zm80.706-80.73h3.228v-3.22h-3.228v3.22Zm-403.53 0h3.228v-3.22H0v3.22Zm484.236 0h3.229v-3.22h-3.229v3.22Zm80.706 0h3.229v-3.22h-3.229v3.22Zm80.706 0h3.229v-3.22h-3.229v3.22Zm80.706 0h3.229v-3.22h-3.229v3.22ZM484.236 2425h3.229v-3.23h-3.229v3.23Zm80.706 0h3.229v-3.23h-3.229v3.23Zm80.706 0h3.229v-3.23h-3.229v3.23Zm80.706 0h3.229v-3.23h-3.229v3.23Zm80.706-80.73h3.229v-3.22h-3.229v3.22Zm80.706 0h3.229v-3.22h-3.229v3.22Zm80.706 0h3.229v-3.22h-3.229v3.22Zm80.708 0h3.23v-3.22h-3.23v3.22Zm80.7 0h3.23v-3.22h-3.23v3.22ZM887.766 2425h3.229v-3.23h-3.229v3.23Zm80.706 0h3.229v-3.23h-3.229v3.23Zm80.708 0h3.23v-3.23h-3.23v3.23Zm80.7 0h3.23v-3.23h-3.23v3.23Zm80.71-80.73h3.23v-3.22h-3.23v3.22Zm80.71 0h3.22v-3.22h-3.22v3.22Zm80.7 0h3.23v-3.22H1372v3.22Zm80.71 0h3.23v-3.22h-3.23v3.22Zm80.7 0h3.23v-3.22h-3.23v3.22ZM1291.3 2425h3.22v-3.23h-3.22v3.23Zm80.7 0h3.23v-3.23H1372v3.23Zm80.71 0h3.23v-3.23h-3.23v3.23Zm80.7 0h3.23v-3.23h-3.23v3.23Zm80.71-80.73h3.23v-3.22h-3.23v3.22Zm80.71 0h3.23v-3.22h-3.23v3.22Zm80.7 0h3.23v-3.22h-3.23v3.22Zm80.71 0h3.23v-3.22h-3.23v3.22Zm80.7 0h3.23v-3.22h-3.23v3.22ZM1694.83 2425h3.23v-3.23h-3.23v3.23Zm80.7 0h3.23v-3.23h-3.23v3.23Zm80.71 0h3.23v-3.23h-3.23v3.23Zm80.7 0h3.23v-3.23h-3.23v3.23Zm80.71-80.73h3.23v-3.22h-3.23v3.22Zm80.71 0h3.23v-3.22h-3.23v3.22Zm80.7 0h3.23v-3.22h-3.23v3.22Zm80.71 0h3.23v-3.22h-3.23v3.22Zm80.71 0h3.22v-3.22h-3.22v3.22ZM2098.36 2425h3.23v-3.23h-3.23v3.23Zm80.7 0h3.23v-3.23h-3.23v3.23Zm80.71 0h3.23v-3.23h-3.23v3.23Zm80.71 0h3.22v-3.23h-3.22v3.23Zm80.7-80.73h3.23v-3.22h-3.23v3.22Zm80.71 0h3.23v-3.22h-3.23v3.22Zm80.7 0h3.23v-3.22h-3.23v3.22Zm80.71 0h3.23v-3.22h-3.23v3.22Zm80.71 0h3.22v-3.22h-3.22v3.22ZM2501.89 2425h3.23v-3.23h-3.23v3.23Zm80.7 0h3.23v-3.23h-3.23v3.23Zm80.71 0h3.23v-3.23h-3.23v3.23Zm80.71 0h3.22v-3.23h-3.22v3.23Zm80.7-80.73h3.23v-3.22h-3.23v3.22Zm80.71 0h3.23v-3.22h-3.23v3.22Zm80.7 0h3.23v-3.22h-3.23v3.22Zm80.71 0h3.23v-3.22h-3.23v3.22Zm80.71 0h3.22v-3.22h-3.22v3.22ZM2905.42 2425h3.23v-3.23h-3.23v3.23Zm80.7 0h3.23v-3.23h-3.23v3.23Zm80.71 0h3.23v-3.23h-3.23v3.23Zm80.71 0h3.22v-3.23h-3.22v3.23Zm80.7-80.73h3.23v-3.22h-3.23v3.22Zm80.71 0h3.23v-3.22h-3.23v3.22Zm80.7 0h3.23v-3.22h-3.23v3.22Zm80.71 0h3.23v-3.22h-3.23v3.22Zm80.71 0h3.22v-3.22h-3.22v3.22ZM3308.95 2425h3.23v-3.23h-3.23v3.23Zm80.7 0h3.23v-3.23h-3.23v3.23Zm80.71 0h3.23v-3.23h-3.23v3.23Zm80.71 0h3.22v-3.23h-3.22v3.23Zm80.7-80.73h3.23v-3.22h-3.23v3.22ZM0 3.229h3.228V0H0v3.229Zm0 403.629h3.228v-3.23H0v3.23Zm0 403.628h3.228v-3.229H0v3.229Zm0 403.624h3.228v-3.22H0v3.22Zm0 403.63h3.228v-3.23H0v3.23Zm0 403.63h3.228v-3.23H0v3.23ZM0 2425h3.228v-3.23H0v3.23ZM403.53 3.229h3.228V0h-3.228v3.229Zm0 403.629h3.228v-3.23h-3.228v3.23Zm0 403.628h3.228v-3.229h-3.228v3.229Zm0 403.624h3.228v-3.22h-3.228v3.22Zm0 403.63h3.228v-3.23h-3.228v3.23Zm0 403.63h3.228v-3.23h-3.228v3.23Zm0 403.63h3.228v-3.23h-3.228v3.23Zm403.53-403.63h3.229v-3.23h-3.229v3.23Zm0 403.63h3.229v-3.23h-3.229v3.23Zm0-1291.61h3.229v-3.23h-3.229v3.23Zm0 403.63h3.229v-3.23h-3.229v3.23Zm0-322.91h3.229v-3.22h-3.229v3.22Zm0 403.63h3.229v-3.23h-3.229v3.23Zm0-1614.511h3.229V0h-3.229v3.229Zm0 403.629h3.229v-3.23h-3.229v3.23Zm0 403.628h3.229v-3.229h-3.229v3.229ZM1210.59 3.229h3.23V0h-3.23v3.229Zm0 403.629h3.23v-3.23h-3.23v3.23Zm0 403.628h3.23v-3.229h-3.23v3.229Zm0 403.624h3.23v-3.22h-3.23v3.22Zm0 403.63h3.23v-3.23h-3.23v3.23Zm0 403.63h3.23v-3.23h-3.23v3.23Zm0 403.63h3.23v-3.23h-3.23v3.23Zm403.53-403.63h3.23v-3.23h-3.23v3.23Zm403.53 0h3.23v-3.23h-3.23v3.23ZM1614.12 2425h3.23v-3.23h-3.23v3.23Zm403.53 0h3.23v-3.23h-3.23v3.23Zm-403.53-1210.89h3.23v-3.22h-3.23v3.22Zm0 403.63h3.23v-3.23h-3.23v3.23Zm403.53-403.63h3.23v-3.22h-3.23v3.22Zm0 403.63h3.23v-3.23h-3.23v3.23ZM1614.12 406.858h3.23v-3.23h-3.23v3.23Zm0 403.628h3.23v-3.229h-3.23v3.229Zm403.53-403.628h3.23v-3.23h-3.23v3.23Zm0 403.628h3.23v-3.229h-3.23v3.229ZM1614.12 3.229h3.23V0h-3.23v3.229Zm403.53 0h3.23V0h-3.23v3.229Zm403.53 0h3.23V0h-3.23v3.229Zm403.53 0h3.23V0h-3.23v3.229Zm403.53 0h3.23V0h-3.23v3.229ZM3631.77 0v3.229h3.23V0h-3.23ZM2421.18 406.858h3.23v-3.23h-3.23v3.23Zm403.53 0h3.23v-3.23h-3.23v3.23Zm403.53 0h3.23v-3.23h-3.23v3.23Zm403.53 0h3.23v-3.23h-3.23v3.23ZM2421.18 810.486h3.23v-3.229h-3.23v3.229Zm403.53 0h3.23v-3.229h-3.23v3.229Zm-403.53 403.624h3.23v-3.22h-3.23v3.22Zm403.53 0h3.23v-3.22h-3.23v3.22Zm403.53-403.624h3.23v-3.229h-3.23v3.229Zm0 403.624h3.23v-3.22h-3.23v3.22Zm403.53-403.624h3.23v-3.229h-3.23v3.229Zm0 403.624h3.23v-3.22h-3.23v3.22Zm-1210.59 403.63h3.23v-3.23h-3.23v3.23Zm403.53 0h3.23v-3.23h-3.23v3.23Zm-403.53 403.63h3.23v-3.23h-3.23v3.23Zm403.53 0h3.23v-3.23h-3.23v3.23ZM2421.18 2425h3.23v-3.23h-3.23v3.23Zm403.53 0h3.23v-3.23h-3.23v3.23Zm403.53 0h3.23v-3.23h-3.23v3.23Zm403.53 0h3.23v-3.23h-3.23v3.23Zm-403.53-403.63h3.23v-3.23h-3.23v3.23Zm403.53 0h3.23v-3.23h-3.23v3.23Zm-403.53-403.63h3.23v-3.23h-3.23v3.23Zm403.53 0h3.23v-3.23h-3.23v3.23Z" clip-rule="evenodd"/><defs><radialGradient id="a" cx="0" cy="0" r="1" gradientTransform="matrix(0 1417 -2124.04 0 1817.5 1008)" gradientUnits="userSpaceOnUse"><stop stop-color="#071A34"/><stop offset="1" stop-color="#154D9A" stop-opacity="0"/></radialGradient></defs></svg>